<svg xmlns="http://www.w3.org/2000/svg" width="512" height="512" viewBox="0 0 32 32" style="enable-background:new 0 0 512 512" xml:space="preserve"><g xmlns="http://www.w3.org/2000/svg" id="Layer_2" data-name="Layer 2"><path d="M3 7h2v20.48A3.53 3.53 0 0 0 8.52 31h15A3.53 3.53 0 0 0 27 27.48V7h2a1 1 0 0 0 0-2H3a1 1 0 0 0 0 2zm22 0v20.48A1.52 1.52 0 0 1 23.48 29h-15A1.52 1.52 0 0 1 7 27.48V7zM12 3h8a1 1 0 0 0 0-2h-8a1 1 0 0 0 0 2z" data-original="#000000"/><path d="M12.68 25a1 1 0 0 0 1-1V12a1 1 0 0 0-2 0v12a1 1 0 0 0 1 1zM19.32 25a1 1 0 0 0 1-1V12a1 1 0 0 0-2 0v12a1 1 0 0 0 1 1z" data-original="#000000"/></g></svg>